<?xml version="1.0"?>
<svg xmlns="http://www.w3.org/2000/svg" height="512px" viewBox="0 -24 499.689 499" width="512px" class=""><g><path d="m170.96875 323.117188c-16.738281.023437-31.414062 11.183593-35.902344 27.308593-4.972656-17.957031-22.453125-29.480469-40.921875-26.96875-18.464843 2.511719-32.234375 18.28125-32.234375 36.917969 0 18.632812 13.769532 34.402344 32.234375 36.914062 18.46875 2.511719 35.949219-9.007812 40.921875-26.96875 5.148438 18.578126 23.617188 30.160157 42.578125 26.703126 18.964844-3.453126 32.164063-20.804688 30.429688-40-1.738281-19.199219-17.828125-33.902344-37.105469-33.902344zm-71.796875 60.511718c-12.84375 0-23.257813-10.414062-23.257813-23.257812.003907-12.84375 10.414063-23.257813 23.257813-23.253906 12.847656 0 23.257813 10.410156 23.257813 23.257812-.015626 12.835938-10.417969 23.242188-23.257813 23.253906zm71.796875 0c-12.84375 0-23.257812-10.410156-23.257812-23.257812 0-12.84375 10.410156-23.253906 23.257812-23.253906 12.84375 0 23.253906 10.410156 23.253906 23.257812-.011718 12.835938-10.417968 23.238281-23.253906 23.253906zm0 0" data-original="#000000" class="active-path" data-old_color="#000000" fill="#FFFFFF"/><path d="m365.082031.34375c-66.761719.042969-123.417969 48.996094-133.140625 115.046875h-183.542968c-26.636719.140625-48.214844 21.675781-48.398438 48.316406v238.5625c0 26.484375 21.921875 48.121094 48.398438 48.121094h377.441406c26.558594-.0625 48.074218-21.5625 48.160156-48.121094v-188.175781c16.664062-23.027344 25.652344-50.71875 25.6875-79.140625 0-74.183594-60.417969-134.609375-134.605469-134.609375zm-316.683593 129.046875h182.261718c-.070312 2-.113281 3.660156-.113281 5.449219-.035156 18.058594 3.585937 35.933594 10.644531 52.550781h-227.191406v-23.683594c.175781-18.910156 15.488281-34.1875 34.398438-34.316406zm275.523437 134h-309.921875v-62h234.136719c16.847656 29.226563 43.800781 51.277344 75.785156 62zm101.917969 173h-377.441406c-18.757813 0-34.398438-15.359375-34.398438-34.121094v-124.878906h446v124.878906c-.078125 18.828125-15.332031 34.066407-34.160156 34.121094zm-19.59375-173c20.167968-6.8125 38.542968-18.085937 53.753906-32.976563v32.976563zm-41.164063-7.824219c-66.570312 0-120.539062-53.96875-120.539062-120.539062 0-66.574219 53.96875-120.539063 120.539062-120.539063 66.574219 0 120.539063 53.964844 120.539063 120.539063-.074219 66.539062-53.996094 120.464844-120.539063 120.539062zm0 0" data-original="#000000" class="active-path" data-old_color="#000000" fill="#FFFFFF"/><path d="m439.871094 74.828125-70.554688-34.597656c-.042968-.023438-.144531-.035157-.1875-.054688-.984375-.511719-2.082031-.78125-3.191406-.785156h-.007812c-1.546876.003906-3.046876.535156-4.253907 1.5l-68.917969 33.835937c-2.363281 1.195313-3.824218 3.640626-3.757812 6.289063v66.007813c0 18 11.492188 40.050781 26.375 50.195312l46.882812 32.03125c2.359376 1.621094 5.472657 1.621094 7.828126 0l47.171874-32.03125c14.878907-10.144531 26.742188-32.195312 26.742188-50.195312v-65.910157c-.089844-2.703125-1.683594-5.128906-4.128906-6.285156zm-136.871094 72.195313v-61.644532l56.109375-27.558594.078125 152.390626-35.886719-24.558594c-11.070312-7.550782-20.300781-25.238282-20.300781-38.628906zm127 0c0 13.390624-9.570312 31.078124-20.640625 38.628906l-36.144531 24.574218v-152.5625l56.785156 27.808594zm0 0" data-original="#000000" class="active-path" data-old_color="#000000" fill="#FFFFFF"/></g> </svg>
