<?xml version="1.0"?>
<svg xmlns="http://www.w3.org/2000/svg" xmlns:xlink="http://www.w3.org/1999/xlink" version="1.1" id="Capa_1" x="0px" y="0px" viewBox="0 0 512 512" style="enable-background:new 0 0 512 512;" xml:space="preserve" width="512px" height="512px" class=""><g><g>
	<g>
		<path d="M455.258,431.938h-83.333c-5.523,0-10,4.478-10,10c0,5.522,4.477,10,10,10h83.333c5.523,0,10-4.478,10-10    C465.258,436.416,460.781,431.938,455.258,431.938z" data-original="#000000" class="active-path" data-old_color="#000000" fill="#FFFFFF"/>
	</g>
</g><g>
	<g>
		<path d="M340.99,434.859c-1.86-1.859-4.43-2.92-7.07-2.92c-2.63,0-5.2,1.061-7.07,2.92c-1.86,1.87-2.92,4.45-2.92,7.08    c0,2.63,1.06,5.21,2.92,7.07c1.86,1.86,4.44,2.93,7.07,2.93c2.64,0,5.21-1.069,7.07-2.93c1.87-1.86,2.93-4.44,2.93-7.07    C343.92,439.299,342.86,436.729,340.99,434.859z" data-original="#000000" class="active-path" data-old_color="#000000" fill="#FFFFFF"/>
	</g>
</g><g>
	<g>
		<path d="M462,128h-48V98c0-5.523-4.477-10-10-10h-10V50c0-16.542-13.458-30-30-30H148c-16.542,0-30,13.458-30,30v38h-10    c-5.523,0-10,4.477-10,10v30H50c-27.57,0-50,22.43-50,50v284c0,16.542,13.458,30,30,30h452c16.542,0,30-13.458,30-30V178    C512,150.43,489.57,128,462,128z M394,108v20h-60v-20H394z M188,88h-10v-8h156v8h-10c-5.523,0-10,4.477-10,10v30H198V98    C198,92.477,193.523,88,188,88z M138,50c0-5.514,4.486-10,10-10h216c5.514,0,10,4.486,10,10v38h-20V70c0-5.523-4.477-10-10-10H168    c-5.523,0-10,4.477-10,10v18h-20V50z M118,108h60v20h-60V108z M492,200h-70.333c-5.523,0-10,4.477-10,10s4.477,10,10,10H492v242    c0,5.514-4.486,10-10,10H30c-5.514,0-10-4.486-10-10V220h70.333c5.523,0,10-4.477,10-10s-4.477-10-10-10H20v-22    c0-16.542,13.458-30,30-30h412c16.542,0,30,13.458,30,30V200z" data-original="#000000" class="active-path" data-old_color="#000000" fill="#FFFFFF"/>
	</g>
</g><g>
	<g>
		<path d="M364,172c-15.869,0-28.892,12.388-29.926,28H177.926c-1.034-15.612-14.057-28-29.926-28c-16.542,0-30,13.458-30,30v27.992    c0,16.542,13.458,30,30,30s30-13.458,30-30V220h156v9.992c0,16.542,13.458,30,30,30s30-13.458,30-30V202    C394,185.458,380.542,172,364,172z M158,229.992c0,5.514-4.486,10-10,10c-5.514,0-10-4.486-10-10V202c0-5.514,4.486-10,10-10    c5.514,0,10,4.486,10,10V229.992z M374,229.992c0,5.514-4.486,10-10,10c-5.514,0-10-4.486-10-10V202c0-5.514,4.486-10,10-10    c5.514,0,10,4.486,10,10V229.992z" data-original="#000000" class="active-path" data-old_color="#000000" fill="#FFFFFF"/>
	</g>
</g><g>
	<g>
		<path d="M316,315.496h-30v-30c0-5.522-4.477-10-10-10h-40c-5.523,0-10,4.478-10,10v30h-30c-5.523,0-10,4.478-10,10v40    c0,5.522,4.477,10,10,10h30v30c0,5.522,4.477,10,10,10h40c5.523,0,10-4.478,10-10v-30h30c5.523,0,10-4.478,10-10v-40    C326,319.974,321.523,315.496,316,315.496z M306,355.496h-30c-5.523,0-10,4.478-10,10v30h-20v-30c0-5.522-4.477-10-10-10h-30v-20    h30c5.523,0,10-4.478,10-10v-30h20v30c0,5.522,4.477,10,10,10h30V355.496z" data-original="#000000" class="active-path" data-old_color="#000000" fill="#FFFFFF"/>
	</g>
</g></g> </svg>
